<svg id="Layer_1" data-name="Layer 1" xmlns="http://www.w3.org/2000/svg" xmlns:xlink="http://www.w3.org/1999/xlink" viewBox="0 0 1025 159"><defs><style>.cls-1{fill:none;}.cls-2{fill:#6fb13f;}.cls-3{fill:#385920;}.cls-4{clip-path:url(#clip-path);}</style><clipPath id="clip-path"><rect class="cls-1" x="9" y="9" width="210.83" height="138.5"/></clipPath></defs><title>Artboard 1</title><path class="cls-2" d="M243.48,133.78a19.71,19.71,0,0,1-4.65,7.05,22.83,22.83,0,0,1-7.8,4.9,30,30,0,0,1-11,1.85,48.86,48.86,0,0,1-5.4-.3,31.36,31.36,0,0,1-5.55-1.15,34.73,34.73,0,0,1-6-2.45,43.92,43.92,0,0,1-6.5-4.2l6.5-8.4a43.45,43.45,0,0,0,5,3.25,24.27,24.27,0,0,0,4.4,1.9,20.83,20.83,0,0,0,4.15.85c1.37.13,2.82.2,4.35.2,3.67,0,6.58-.93,8.75-2.8a9.84,9.84,0,0,0,3.25-7.9,10.47,10.47,0,0,0-.65-3.65,14.22,14.22,0,0,0-1.65-3.2,12.21,12.21,0,0,0-2.2-2.45,15.07,15.07,0,0,0-2.3-1.6l-14.2-7.4A31.59,31.59,0,0,1,201.58,100q-3.86-4.84-3.85-12.65A19.63,19.63,0,0,1,199.5,79a18.77,18.77,0,0,1,4.94-6.5A22.43,22.43,0,0,1,212,68.33a29.73,29.73,0,0,1,9.46-1.45,49.64,49.64,0,0,1,5.75.3,28.74,28.74,0,0,1,4.9,1,26,26,0,0,1,4.7,1.95c1.57.83,3.28,1.85,5.15,3.05l-5.8,8.8a19.22,19.22,0,0,0-6.75-3.9,24.62,24.62,0,0,0-7.95-1.3,16.31,16.31,0,0,0-4.5.6,11.28,11.28,0,0,0-3.7,1.8,8.7,8.7,0,0,0-2.55,3,9.68,9.68,0,0,0-1,4.45,11.42,11.42,0,0,0,1,5,12.3,12.3,0,0,0,2.34,3.4,12.59,12.59,0,0,0,2.79,2.15c1,.53,1.78,1,2.45,1.3l13.16,6.7a38.41,38.41,0,0,1,5,3.25,22.08,22.08,0,0,1,4.34,4.35,21.42,21.42,0,0,1,3,5.65,20.36,20.36,0,0,1,1.15,7A22.56,22.56,0,0,1,243.48,133.78Z"/><path class="cls-2" d="M292,78.38v68.3H280V78.38h-22.1V68.08h56.2v10.3Z"/><path class="cls-2" d="M331.37,146.78V68.18h45.4v10.1h-33.4v23.3h32.1v10.1h-32.1v25h36v10.1Z"/><path class="cls-2" d="M465.06,146.68V95.78l-26.7,29.6-27.3-29.7v51h-12V65.08l39.8,43.2,38.2-43.2v81.6Z"/><path class="cls-3" d="M546.8,117.08c0,9.84,0,17.88.48,22.08.36,3,.84,4.92,4.08,5.4a40.39,40.39,0,0,0,4.8.48.75.75,0,0,1,.84.84c0,.48-.48.84-1.68.84-5.76,0-12.48-.36-13.08-.36s-7.8.36-10.92.36c-1.2,0-1.68-.24-1.68-.84,0-.36.24-.72.84-.72a14,14,0,0,0,3.12-.48c2.16-.48,2.76-2.52,3.12-5.52.48-4.2.48-12.24.48-22.08V74.24L522,74.48c-6.6.12-9.12.84-10.68,3.24A16.55,16.55,0,0,0,509.6,81c-.24.84-.6,1-1.08,1a.8.8,0,0,1-.72-.84c0-1.08,2.16-10.2,2.28-11,.24-.6.72-1.92,1.08-1.92.72,0,1.8.84,4.68,1.2s7.08.48,8.28.48H564a52.49,52.49,0,0,0,7.56-.48c1.56-.24,2.52-.48,3-.48s.48.6.48,1.2c0,3.12-.37,10.44-.37,11.64,0,.84-.47,1.32-1,1.32s-.72-.36-.84-1.8l-.13-1.08c-.35-3.12-2.63-5.4-12.71-5.64l-13.2-.24Z"/><path class="cls-3" d="M591.56,99.08c0-15.84,0-18.72-.24-22S590.48,72,587,71.48a34,34,0,0,0-3.6-.24,1,1,0,0,1-.84-.84c0-.6.48-.84,1.68-.84,4.8,0,11.16.24,12.12.24s7.56-.24,10.68-.24c1.2,0,1.79.24,1.79.84a1,1,0,0,1-1,.84,12.28,12.28,0,0,0-2.64.24c-2.76.48-3.36,2.28-3.6,5.64s-.24,6.12-.24,22v14.28c0,14.76,3.23,20.88,7.8,25,5.16,4.68,9.72,5.52,15.71,5.52,6.48,0,12.72-2.88,16.32-7.2,4.92-5.88,6-14.28,6-24.72V99.08c0-15.84-.12-18.72-.24-22s-.72-5.16-4.2-5.64a34,34,0,0,0-3.6-.24.9.9,0,0,1-.84-.84c0-.6.48-.84,1.68-.84,4.68,0,10.8.24,11.4.24s5.76-.24,8.88-.24c1.2,0,1.68.24,1.68.84a.9.9,0,0,1-.84.84,12.33,12.33,0,0,0-2.64.24c-2.88.6-3.48,2.28-3.72,5.64s-.12,6.12-.12,22V110c0,11-1.44,23.4-9.84,30.6C637.15,147.2,629,148,622.75,148c-3.47,0-14.51-.24-22-7.2-5.15-4.8-9.23-11.88-9.23-26.76Z"/><path class="cls-3" d="M694.39,117.08c0,9.84,0,17.88.49,22.08.35,3,.71,4.92,3.83,5.4a42.94,42.94,0,0,0,4.8.48.81.81,0,0,1,.84.84c0,.48-.48.84-1.68.84-5.88,0-12.71-.36-13.2-.36s-7.19.36-10.43.36c-1.08,0-1.68-.24-1.68-.84a.81.81,0,0,1,.84-.84,15.2,15.2,0,0,0,3.24-.48c2-.48,2.39-2.4,2.76-5.4.47-4.2.59-12.24.59-22.08v-18c0-15.84,0-18.72-.24-22-.24-3.48-1.08-5-3.35-5.52a18.87,18.87,0,0,0-3.24-.36.9.9,0,0,1-.84-.84c0-.6.48-.84,1.67-.84,3.49,0,10.09.24,10.68.24s7.32-.24,10.56-.24c1.2,0,1.68.24,1.68.84a1,1,0,0,1-.83.84,11.81,11.81,0,0,0-2.65.24c-2.88.6-3.48,2-3.72,5.64-.12,3.24-.12,6.12-.12,22Z"/><path class="cls-3" d="M754.51,117.08c0,9.84,0,17.88.48,22.08.36,3,.84,4.92,4.08,5.4a40.39,40.39,0,0,0,4.8.48.75.75,0,0,1,.84.84c0,.48-.48.84-1.68.84-5.76,0-12.48-.36-13.08-.36s-7.8.36-10.92.36c-1.2,0-1.68-.24-1.68-.84,0-.36.24-.72.84-.72a14,14,0,0,0,3.12-.48c2.16-.48,2.76-2.52,3.12-5.52.48-4.2.48-12.24.48-22.08V74.24l-15.24.24c-6.6.12-9.12.84-10.68,3.24A16.55,16.55,0,0,0,717.31,81c-.24.84-.6,1-1.08,1a.81.81,0,0,1-.72-.84c0-1.08,2.16-10.2,2.28-11,.25-.6.72-1.92,1.09-1.92.71,0,1.79.84,4.67,1.2s7.08.48,8.28.48h39.84a52.49,52.49,0,0,0,7.56-.48c1.56-.24,2.52-.48,3-.48s.48.6.48,1.2c0,3.12-.36,10.44-.36,11.64,0,.84-.48,1.32-1,1.32s-.72-.36-.84-1.8l-.12-1.08c-.36-3.12-2.64-5.4-12.72-5.64l-13.2-.24Z"/><path class="cls-3" d="M814.27,117.08c0,9.84,0,17.88.48,22.08.36,3,.72,4.92,3.84,5.4a42.94,42.94,0,0,0,4.8.48.81.81,0,0,1,.84.84c0,.48-.48.84-1.68.84-5.88,0-12.72-.36-13.2-.36s-7.2.36-10.44.36c-1.08,0-1.68-.24-1.68-.84a.81.81,0,0,1,.84-.84,15.11,15.11,0,0,0,3.24-.48c2-.48,2.4-2.4,2.76-5.4.48-4.2.6-12.24.6-22.08v-18c0-15.84,0-18.72-.24-22-.24-3.48-1.08-5-3.36-5.52a18.87,18.87,0,0,0-3.24-.36.9.9,0,0,1-.84-.84c0-.6.48-.84,1.68-.84,3.48,0,10.08.24,10.68.24s7.32-.24,10.56-.24c1.2,0,1.68.24,1.68.84a1,1,0,0,1-.84.84,11.78,11.78,0,0,0-2.64.24c-2.88.6-3.48,2-3.72,5.64-.12,3.24-.12,6.12-.12,22Z"/><path class="cls-3" d="M879.55,68.12c23.76,0,41.76,14.52,41.76,38.28,0,22.8-16.92,41.64-42.36,41.64C850,148,837.67,126.32,837.67,108,837.67,91.52,850.39,68.12,879.55,68.12Zm2.4,75.72c9.48,0,28.56-5,28.56-34.56C910.51,84.8,895.63,72,879,72c-17.64,0-30.36,11-30.36,33.24C848.59,129,862.87,143.84,882,143.84Z"/><path class="cls-3" d="M947.83,132.8c.24,8.4,1.2,10.92,4.08,11.64a25.1,25.1,0,0,0,5.28.6.82.82,0,0,1,.84.84c0,.6-.72.84-1.92.84-6,0-10.2-.36-11.16-.36s-5.4.36-10.2.36c-1.08,0-1.68-.12-1.68-.84a.82.82,0,0,1,.84-.84,16.62,16.62,0,0,0,4.32-.6c2.64-.72,3-3.48,3-12.72V73.28c0-4.08.6-5.16,1.44-5.16,1.2,0,3,2,4.08,3.12,1.68,1.68,17,18,33.36,34.8,10.44,10.8,21.72,22.92,25,26.28L1004,81.2c-.12-6.6-.72-8.88-4-9.48a33.8,33.8,0,0,0-5.16-.48c-.72,0-.84-.6-.84-1,0-.6.84-.72,2-.72,4.8,0,9.84.24,11,.24s4.68-.24,9-.24c1.08,0,1.92.12,1.92.72a1.19,1.19,0,0,1-1.2,1,12,12,0,0,0-2.52.24c-3.48.72-3.72,2.76-3.72,8.88l-.24,59.76c0,6.72-.12,7.32-.84,7.32-1.08,0-2.16-.84-8-6.24-1.08-1-16.32-16-27.48-27.6-12.24-12.84-24.12-25.32-27.36-28.92Z"/><g class="cls-4"><g class="cls-4"><path class="cls-2" d="M219.21,9c-5.75,0-11.47.12-17.21.64-3.56.32-7.15.61-10.72,1a168.16,168.16,0,0,0-22.16,4,117.79,117.79,0,0,0-21.79,7.47,56.81,56.81,0,0,0-7.23,3.52C136,28.28,131.76,30.74,128,34a66.73,66.73,0,0,0-7.18,7.08C118,44.37,115.18,47.8,113.59,52c-.64,1.7-1.73,3.23-2.44,4.93-2.72,6.48-3.5,13.34-3.89,20.25a55.19,55.19,0,0,0,.38,10c1-1.33.93-2.75,1.5-4A99.58,99.58,0,0,1,119.24,66a106.78,106.78,0,0,1,12.55-14.09c.8-.77,1.77-1.36,2.52-2.16,3.54-3.77,7.8-6.66,12-9.56,3.17-2.2,6.52-4.22,9.92-6.12a180.23,180.23,0,0,1,16.55-7.89c4.51-2,9.29-3.18,13.92-4.8.33-.12,8.72-3.35,5.72-1.35,4.54-2.45-6.23,2.51-7.11,2.83-5,1.86-9.6,4.53-14.38,6.84-3.48,1.7-6.65,4-10.06,5.87a76.21,76.21,0,0,0-7.81,5.32c-3.62,2.62-7.21,5.31-10.65,8.21-2.58,2.17-5.1,4.44-7.49,6.78-2.91,2.83-5.66,5.89-8.33,9-1.91,2.2-3.63,4.56-5.34,6.89a80.73,80.73,0,0,0-8.12,13.41,107.43,107.43,0,0,0-5.05,11.52A118.55,118.55,0,0,0,103.76,112c-.28,1.57-.47,3.15-.73,4.81a59.54,59.54,0,0,0-5.22-4.52c-3.08-2.11-6-4.38-9.5-6-2.49-1.14-5-2.37-7.51-3.33a61.31,61.31,0,0,0-15.29-3.25c-8.3-.84-16.38.62-24.36,2.66a61.43,61.43,0,0,0-9,3.39c-.36.17-8.77,4.23-1.46-.19,8.24-4.5,16.57-8,25.88-9.14,13.32-1.57,25.48,1.11,36.46,9.08a1.57,1.57,0,0,0,0-.52c-.48-1.55-1.64-2.61-2.58-3.85a47.48,47.48,0,0,0-8.42-8.63c-3.53-2.76-7.16-5.48-11.62-6.73-1.67-.47-3.29-1.18-5-1.58-7.92-1.91-15.37-.15-22.62,2.92a58.23,58.23,0,0,0-7.31,4.26,52.46,52.46,0,0,0-9.21,7.32,102.2,102.2,0,0,0-7.26,7.45c-2.72,3.21-5.36,6.48-8,9.77-.72.91-1.31,1.91-2.09,3.06a121.43,121.43,0,0,1,14.2-.66A59.57,59.57,0,0,1,38.25,120l4.67,1.26,1.65.32a.19.19,0,0,0,.18.07.33.33,0,0,1,.39.2A31.73,31.73,0,0,0,51,123,36.76,36.76,0,0,0,58.55,124a8,8,0,0,0,2.49,0,22.35,22.35,0,0,0,7.32-.74c1.27-.24,2.57-.37,3.82-.73a108.91,108.91,0,0,0,17.66-7.34,2.21,2.21,0,0,1,2.54.16,43.31,43.31,0,0,1,8.89,7.7c.76.91,1.65,1.79,1.61,3.14-.14,4.83.16,9.65.31,14.48.07,2.19.25,4.4.38,6.78l6.67-1.7a3.05,3.05,0,0,0-.16-1.66c-.09-.49-.23-1-.32-1.49a75.37,75.37,0,0,1-.75-21.36,82.53,82.53,0,0,1,7.53-27.08,1.68,1.68,0,0,1,1.79-1.13,65.87,65.87,0,0,0,15.15-1.87A82,82,0,0,0,159,80.54a82.47,82.47,0,0,0,12.14-9.25c2.71-2.5,5.27-5.15,7.74-7.86a103.46,103.46,0,0,0,7.93-10.32c3.25-4.55,5.65-9.57,8.51-14.31,2.33-3.86,4.77-7.63,7.39-11.28a93,93,0,0,1,8.43-10.29,54.48,54.48,0,0,1,4.59-4.4c1.41-1.15,2.52-2.6,4.09-3.61a1.18,1.18,0,0,0-.62-.22"/></g></g></svg>